<svg xmlns="http://www.w3.org/2000/svg" xmlns:xlink="http://www.w3.org/1999/xlink" version="1.1" style="" xml:space="preserve" width="75" height="68"><rect id="backgroundrect" width="100%" height="100%" x="0" y="0" fill="none" stroke="none" class="" style=""/><g class="currentLayer" style=""><title>Layer 1</title><path d="M74.51365222930909,14.887499427795412 c-0.30000000000000004,-0.8 -2.7,-7.6 -10.1,-13.2 c-2,-1.5 -4.2,-2 -6.4,-1.5 c-4.3,1 -7.5,5.8 -8.9,8.2 c-3.5,-1.2 -7.2,-1.8 -11.2,-1.8 c-4,0 -7.9,0.7000000000000001 -11.5,1.9 c-1.3,-2.3 -4.6,-7.2 -9,-8.3 c-2.2,-0.5 -4.4,0 -6.4,1.5 c-7.4,5.6 -9.9,12.3 -10.1,13.2 c-0.9,2 -1.5,4.6 0,5.8 c0.4,0.30000000000000004 0.9,0.5 1.4,0.5 c1.3,0 2.8,-1 4,-1.9 c2.7,-2.1 5.7,-3.1 8.1,-3.5 c-5.8,5.5 -9.4,13.1 -9.4,21.4 c0,16.9 14.8,30.6 32.9,30.6 s32.9,-13.7 32.9,-30.6 c0,-8.3 -3.5,-15.8 -9.3,-21.3 c2.3,0.5 5.1,1.5 7.6,3.4 c1.2,0.9 2.7,1.9 4,1.9 c0.5,0 1,-0.1 1.4,-0.5 C76.11365222930908,19.487499427795413 75.41365222930908,16.88749942779541 74.51365222930909,14.887499427795412 zM4.413652229309083,16.88749942779541 c-0.6000000000000001,0.4 -1,0.7000000000000001 -1.4,0.9 c0.1,-0.6000000000000001 0.30000000000000004,-1.2 0.6000000000000001,-1.8 l0.1,-0.1 c0,-0.1 2.1,-6.5 9.1,-11.8 c1.3,-1 2.6,-1.3 3.9,-1 c2.8,0.7000000000000001 5.5,4.2 6.8,6.5 c-1.7000000000000002,0.8 -3.4,1.7000000000000002 -5,2.8 C16.81365222930908,12.387499427795412 10.213652229309083,12.58749942779541 4.413652229309083,16.88749942779541 zM67.81365222930908,37.18749942779541 c0,15.2 -13.4,27.6 -29.9,27.6 S8.01365222930908,52.387499427795404 8.01365222930908,37.18749942779541 c0,-15.2 13.4,-27.6 29.9,-27.6 S67.81365222930908,21.88749942779541 67.81365222930908,37.18749942779541 zM71.01365222930909,16.88749942779541 c-5.4,-4.1 -11.5,-4.5 -13.8,-4.6 c-1.6,-1.1 -3.4,-2.1 -5.3,-2.9 c1.4,-2.3 4,-5.7 6.8,-6.3 c1.3,-0.30000000000000004 2.6,0 3.9,1 c6.9,5.2 9.1,11.7 9.1,11.8 l0.1,0.1 c0.30000000000000004,0.6000000000000001 0.5,1.3 0.6000000000000001,1.8 C72.01365222930909,17.68749942779541 71.61365222930908,17.38749942779541 71.01365222930909,16.88749942779541 z" id="svg_1" class=""/><circle cx="27.813652992248535" cy="37.387497901916504" r="2.200000047683716" id="svg_2" class=""/><circle cx="47.61365222930908" cy="37.387497901916504" r="2.200000047683716" id="svg_3" class=""/><path d="M46.51365222930908,57.687499427795416 c-1.8,1.6 -3.3,2.2 -4.6,1.8 c-2.1,-0.8 -3.2,-4.2 -3.7,-6.1 c0.1,-0.30000000000000004 0.1,-0.5 0.1,-0.7000000000000001 c0.6000000000000001,-0.7000000000000001 1.6,-1.9 3.6,-4.3 c-4.2,-3.7 -8.5,0 -8.5,0 l3.5,4.2 c0,0.2 0.1,0.5 0.2,0.8 c-0.5,1.9 -1.6,5.4 -3.7,6.1 c-1.3,0.5 -2.8,-0.1 -4.6,-1.8 L28.113652229309082,58.387499427795404 c1.6,1.4 3.1,2.2 4.4,2.2 c0.4,0 0.8,-0.1 1.2,-0.2 c2,-0.7000000000000001 3.2,-3.2 3.9,-5.2 c0.7000000000000001,2 1.9,4.5 3.9,5.2 c0.4,0.1 0.8,0.2 1.2,0.2 c1.4,0 2.8,-0.7000000000000001 4.4,-2.2 L46.51365222930908,57.687499427795416 z" id="svg_4" class=""/></g></svg>